HIERARCHY
ROOT Hips
{
	OFFSET	0.00	0.00	0.00
	CHANNELS 6 Xposition Yposition Zposition Zrotation Xrotation Yrotation
	JOINT LeftUpLeg
	{
		OFFSET	 0.126116	-0.014019	-0.065224
		CHANNELS 3 Zrotation Xrotation Yrotation
		JOINT LeftLeg
		{
			OFFSET	 0.000000	 0.000000	 0.569914
			CHANNELS 3 Zrotation Xrotation Yrotation
			JOINT LeftFoot
			{
				OFFSET	 0.000000	 0.000000	 0.544423
				CHANNELS 3 Zrotation Xrotation Yrotation
				JOINT LeftToeBase
				{
					OFFSET	 0.000000	 0.000000	 0.207117
					CHANNELS 3 Zrotation Xrotation Yrotation
					End Site
					{
						OFFSET	 0.000000	 0.000000	 0.207117
					}
				}
			}
		}
	}
	JOINT RightUpLeg
	{
		OFFSET	-0.124023	-0.008373	-0.065224
		CHANNELS 3 Zrotation Xrotation Yrotation
		JOINT RightLeg
		{
			OFFSET	 0.000000	 0.000000	 0.570047
			CHANNELS 3 Zrotation Xrotation Yrotation
			JOINT RightFoot
			{
				OFFSET	 0.000000	 0.000000	 0.544354
				CHANNELS 3 Zrotation Xrotation Yrotation
				JOINT RightToeBase
				{
					OFFSET	 0.000000	 0.000000	 0.207540
					CHANNELS 3 Zrotation Xrotation Yrotation
					End Site
					{
						OFFSET	 0.000000	 0.000000	 0.207540
					}
				}
			}
		}
	}
	JOINT Spine
	{
		OFFSET	 0.000184	-0.007763	 0.117403
		CHANNELS 3 Zrotation Xrotation Yrotation
		JOINT Spine1
		{
			OFFSET	 0.000000	 0.000000	 0.137269
			CHANNELS 3 Zrotation Xrotation Yrotation
			JOINT Spine2
			{
				OFFSET	 0.000000	 0.000000	 0.156879
				CHANNELS 3 Zrotation Xrotation Yrotation
				JOINT LeftShoulder
				{
					OFFSET	 0.080501	-0.002496	 0.160144
					CHANNELS 3 Zrotation Xrotation Yrotation
					JOINT LeftArm
					{
						OFFSET	 0.000000	 0.000000	 0.164363
						CHANNELS 3 Zrotation Xrotation Yrotation
						JOINT LeftForeArm
						{
							OFFSET	 0.000000	 0.000000	 0.364576
							CHANNELS 3 Zrotation Xrotation Yrotation
							JOINT LeftHand
							{
								OFFSET	 0.000000	 0.000000	 0.360812
								CHANNELS 3 Zrotation Xrotation Yrotation
								JOINT LeftHandIndex1
								{
									OFFSET	 0.000000	 0.000000	 0.086006
									CHANNELS 3 Zrotation Xrotation Yrotation
									JOINT LeftHandIndex2
									{
										OFFSET	 0.000000	 0.000000	 0.047236
										CHANNELS 3 Zrotation Xrotation Yrotation
										JOINT LeftHandIndex3
										{
											OFFSET	-0.004284	-0.000551	 0.038166
											CHANNELS 3 Zrotation Xrotation Yrotation
											End Site
											{
												OFFSET	-0.004284	-0.000551	 0.038166
											}
										}
									}
								}
							}
						}
					}
				}
				JOINT Neck
				{
					OFFSET	 0.000000	 0.000000	 0.176489
					CHANNELS 3 Zrotation Xrotation Yrotation
					JOINT Head
					{
						OFFSET	 0.000000	-0.001747	 0.077940
						CHANNELS 3 Zrotation Xrotation Yrotation
						End Site
						{
							OFFSET	 0.000000	-0.001747	 0.077940
						}
					}
				}
				JOINT RightShoulder
				{
					OFFSET	-0.080363	 0.000306	 0.159706
					CHANNELS 3 Zrotation Xrotation Yrotation
					JOINT RightArm
					{
						OFFSET	 0.000000	 0.000000	 0.164196
						CHANNELS 3 Zrotation Xrotation Yrotation
						JOINT RightForeArm
						{
							OFFSET	 0.000000	 0.000000	 0.365611
							CHANNELS 3 Zrotation Xrotation Yrotation
							JOINT RightHand
							{
								OFFSET	 0.000000	 0.000000	 0.360648
								CHANNELS 3 Zrotation Xrotation Yrotation
								JOINT RightHandIndex1
								{
									OFFSET	 0.000000	 0.000000	 0.069977
									CHANNELS 3 Zrotation Xrotation Yrotation
									JOINT RightHandIndex2
									{
										OFFSET	 0.000000	 0.000000	 0.052305
										CHANNELS 3 Zrotation Xrotation Yrotation
										JOINT RightHandIndex3
										{
											OFFSET	 0.009002	-0.000782	 0.042196
											CHANNELS 3 Zrotation Xrotation Yrotation
											End Site
											{
												OFFSET	 0.009002	-0.000782	 0.042196
											}
										}
									}
								}
							}
						}
					}
				}
			}
		}
	}
}
MOTION
Frames:    11
Frame Time: 0.03333334
 0.000296	 0.019717	 1.271220	-0.003131	 0.003404	 0.173270	 7.280930	-1.847393	 176.386000	 1.483539	-11.099580	-0.646665	-8.917723	 70.125790	 2.997639	-2.385833	 28.452760	 0.000004	-7.451981	-1.878448	-176.704200	-1.473883	-10.747170	 0.614133	 8.490062	 69.825920	-2.737168	 2.384658	 28.388730	 0.000004	-8.839559	 2.705488	 0.299530	-2.161888	 3.725177	-0.807822	 6.544899	-4.573531	 1.413692	-91.776230	 78.527450	-180.000000	 45.165970	 35.669950	-61.735670	-10.761870	 0.254237	-1.691678	-31.814780	-13.424460	-4.798659	-2.635965	 4.993658	 6.788941	-5.165319	 0.784187	 3.516649	-5.225038	 0.466231	 0.424329	-0.000002	-3.783157	-0.089647	 6.368562	 4.594325	-0.255747	 89.782200	 78.203900	 179.999900	-63.822530	 41.852670	 60.886420	 10.619770	 0.284001	 1.717136	 32.292950	-14.071860	 9.512695	 6.112037	 4.509576	-0.364401	 4.968462	 1.518543	-9.347576	 5.168945	 0.703820	 2.021906
 0.000301	 0.019719	 1.271322	-0.003001	 0.003639	 0.173811	 7.601947	-1.868971	 176.365300	 1.483573	-11.096120	-0.646460	-8.905510	 70.102590	 2.985376	-2.385833	 28.452760	 0.000004	-7.773396	-1.896702	-176.685600	-1.473938	-10.741170	 0.613783	 8.475287	 69.802670	-2.721761	 2.384658	 28.388730	 0.000004	-12.301020	 2.678662	 0.295423	-2.159815	 3.818071	-0.800229	 6.538139	-4.693510	 1.420210	-91.776150	 78.527490	 180.000000	 45.140230	 35.622590	-61.596070	-12.752260	 0.390824	-2.647658	-33.002480	-14.610460	-5.128440	-2.635965	 4.993658	 6.788941	-5.165319	 0.784187	 3.516649	-5.225038	 0.466231	 0.424329	-0.000002	-3.783157	-0.089647	 6.357120	 4.539091	-0.252215	 89.782040	 78.203900	-180.000000	-63.324170	 41.633750	 61.814870	 12.406030	 0.420271	 2.673912	 33.481400	-15.257500	 9.824044	 6.112037	 4.509576	-0.364401	 4.968462	 1.518543	-9.347576	 5.168945	 0.703820	 2.021906
 0.000305	 0.019722	 1.271429	-0.002883	 0.003880	 0.174224	 7.924550	-1.890406	 176.344700	 1.483623	-11.091930	-0.646208	-8.892813	 70.078950	 2.972582	-2.385833	 28.452760	 0.000004	-8.096349	-1.915197	-176.666900	-1.474010	-10.735180	 0.613432	 8.460209	 69.779270	-2.706004	 2.384658	 28.388730	 0.000004	-15.555270	 2.651750	 0.291145	-2.156095	 3.911277	-0.792030	 6.526391	-4.814223	 1.425683	-91.776150	 78.527430	 180.000000	 45.109230	 35.567970	-61.444570	-14.649940	 0.583102	-3.552351	-34.150080	-15.714880	-5.489597	-2.635965	 4.993658	 6.788941	-5.165319	 0.784187	 3.516649	-5.225038	 0.466231	 0.424329	-0.000002	-3.783157	-0.089647	 6.340784	 4.484240	-0.248522	 89.782100	 78.203890	 180.000000	-62.356120	 41.115020	 61.452050	 13.964910	 1.906979	 5.854584	 34.706770	-16.464890	 10.126990	 6.112037	 4.509576	-0.364401	 4.968462	 1.518543	-9.347576	 5.168945	 0.703820	 2.021906
 0.000310	 0.019728	 1.271539	-0.002731	 0.004149	 0.174451	 8.290439	-1.914619	 176.321800	 1.483689	-11.086770	-0.645898	-8.877935	 70.051940	 2.957580	-2.385833	 28.452760	 0.000004	-8.462586	-1.936540	-176.645700	-1.474077	-10.728860	 0.613062	 8.442904	 69.753050	-2.687896	 2.384658	 28.388730	 0.000004	-19.010470	 2.621269	 0.286218	-2.149931	 4.016804	-0.781964	 6.507088	-4.951276	 1.430485	-91.776270	 78.527490	-179.999900	 45.063210	 35.503030	-61.253670	-16.708110	 0.862588	-4.527521	-35.413740	-16.871870	-5.931979	-2.635965	 4.993658	 6.788941	-5.165319	 0.784187	 3.516649	-5.225038	 0.466231	 0.424329	-0.000002	-3.783157	-0.089647	 6.316457	 4.422903	-0.244178	 89.782170	 78.203900	 179.999900	-60.753390	 40.228420	 59.806090	 15.314210	 5.107162	 11.528860	 36.117360	-17.826370	 10.477510	 6.112037	 4.509576	-0.364401	 4.968462	 1.518543	-9.347576	 5.168945	 0.703820	 2.021906
 0.000313	 0.019738	 1.271636	-0.002578	 0.004417	 0.174536	 8.634915	-1.937211	 176.300400	 1.483748	-11.081190	-0.645566	-8.863449	 70.026190	 2.942951	-2.385833	 28.452760	 0.000004	-8.807352	-1.956708	-176.625800	-1.474147	-10.722730	 0.612705	 8.426317	 69.728320	-2.670473	 2.384658	 28.388730	 0.000004	-22.039300	 2.592700	 0.281390	-2.142222	 4.115716	-0.771767	 6.483079	-5.080219	 1.433611	-91.776180	 78.527450	 180.000000	 45.017500	 35.429560	-61.064470	-18.566350	 1.175617	-5.394601	-36.572560	-17.868390	-6.374883	-2.635965	 4.993658	 6.788941	-5.165319	 0.784187	 3.516649	-5.225038	 0.466231	 0.424329	-0.000002	-3.783157	-0.089647	 6.287883	 4.365984	-0.239940	 89.782160	 78.203890	 179.999900	-59.294850	 39.430350	 59.309520	 16.363770	 7.605990	 15.507660	 37.409840	-19.032680	 10.839160	 6.112037	 4.509576	-0.364401	 4.968462	 1.518543	-9.347576	 5.168945	 0.703820	 2.021906
 0.000315	 0.019750	 1.271739	-0.002440	 0.004665	 0.174418	 8.964910	-1.958712	 176.280300	 1.483820	-11.075390	-0.645218	-8.849136	 70.001300	 2.928478	-2.385833	 28.452760	 0.000004	-9.137525	-1.976505	-176.606600	-1.474201	-10.717600	 0.612403	 8.410358	 69.705020	-2.653695	 2.384658	 28.388730	 0.000004	-24.731430	 2.565425	 0.276709	-2.133089	 4.210175	-0.761481	 6.454789	-5.203675	 1.435384	-91.776160	 78.527450	 180.000000	 44.965190	 35.355570	-60.868330	-20.277820	 1.516801	-6.183141	-37.655760	-18.735840	-6.817167	-2.635965	 4.993658	 6.788941	-5.165319	 0.784187	 3.516649	-5.225038	 0.466231	 0.424329	-0.000002	-3.783157	-0.089647	 6.255401	 4.312271	-0.235759	 89.782100	 78.203870	 180.000000	-58.027320	 38.744160	 60.277210	 17.339400	 9.011115	 17.494000	 38.626000	-20.136730	 11.201930	 6.112037	 4.509576	-0.364401	 4.968462	 1.518543	-9.347576	 5.168945	 0.703820	 2.021906
 0.000317	 0.019764	 1.271833	-0.002291	 0.004912	 0.174140	 9.289530	-1.979705	 176.260700	 1.483883	-11.069170	-0.644850	-8.834663	 69.976610	 2.913829	-2.385833	 28.452760	 0.000004	-9.462315	-1.996157	-176.587800	-1.474254	-10.712650	 0.612115	 8.394422	 69.682170	-2.636920	 2.384658	 28.388730	 0.000004	-27.172280	 2.538702	 0.272019	-2.122451	 4.302679	-0.750791	 6.421902	-5.324928	 1.435871	-91.776310	 78.527430	-179.999900	 44.907280	 35.278720	-60.662440	-21.897610	 1.887893	-6.920442	-38.694920	-19.502790	-7.263444	-2.635965	 4.993658	 6.788941	-5.165319	 0.784187	 3.516649	-5.225038	 0.466231	 0.424329	-0.000002	-3.783157	-0.089647	 6.218580	 4.260243	-0.231538	 89.782100	 78.203870	 180.000000	-56.812120	 38.101880	 61.996770	 18.354320	 9.848338	 18.469850	 39.789560	-21.145270	 11.576800	 6.112037	 4.509576	-0.364401	 4.968462	 1.518543	-9.347576	 5.168945	 0.703820	 2.021906
 0.000318	 0.019777	 1.271905	-0.002140	 0.005167	 0.173682	 9.620975	-2.000897	 176.241100	 1.483968	-11.062140	-0.644429	-8.819425	 69.951050	 2.898375	-2.385833	 28.452760	 0.000004	-9.793836	-2.016530	-176.568500	-1.474312	-10.707950	 0.611839	 8.378033	 69.659100	-2.619608	 2.384658	 28.388730	 0.000004	-29.443210	 2.511558	 0.267164	-2.109886	 4.396636	-0.739360	 6.383148	-5.448448	 1.435090	-91.776210	 78.527450	-180.000000	 44.847810	 35.191880	-60.447590	-23.487070	 2.293870	-7.628510	-39.726850	-20.194370	-7.724054	-2.635965	 4.993658	 6.788941	-5.165319	 0.784187	 3.516649	-5.225038	 0.466231	 0.424329	-0.000002	-3.783157	-0.089647	 6.176009	 4.207952	-0.227126	 89.782160	 78.203900	 179.999900	-55.564570	 37.414990	 64.063450	 19.239840	 10.437570	 19.063180	 40.781380	-22.143840	 11.897330	 6.112037	 4.509576	-0.364401	 4.968462	 1.518543	-9.347576	 5.168945	 0.703820	 2.021906
 0.000319	 0.019790	 1.271937	-0.001961	 0.005454	 0.173000	 9.995724	-2.024858	 176.219100	 1.484057	-11.053980	-0.643941	-8.801837	 69.922040	 2.880517	-2.385833	 28.452760	 0.000004	-10.168650	-2.039973	-176.546800	-1.474363	-10.703130	 0.611557	 8.359309	 69.633260	-2.599806	 2.384658	 28.388730	 0.000004	-31.730790	 2.481071	 0.261563	-2.093621	 4.502209	-0.725736	 6.333042	-5.587675	 1.432575	-91.776160	 78.527470	 180.000000	 44.774270	 35.093250	-60.193430	-25.205760	 2.783875	-8.380805	-40.855040	-20.861640	-8.242422	-2.635965	 4.993658	 6.788941	-5.165319	 0.784187	 3.516649	-5.225038	 0.466231	 0.424329	-0.000002	-3.783157	-0.089647	 6.121874	 4.149898	-0.222022	 89.782140	 78.203900	 180.000000	-54.006590	 36.562860	 65.993800	 20.000860	 11.453910	 20.200520	 41.786240	-23.195790	 12.233460	 6.112037	 4.509576	-0.364401	 4.968462	 1.518543	-9.347576	 5.168945	 0.703820	 2.021906
 0.000319	 0.019800	 1.271921	-0.001794	 0.005712	 0.172178	 10.331240	-2.045958	 176.199800	 1.484155	-11.045790	-0.643452	-8.785557	 69.895680	 2.863975	-2.385833	 28.452760	 0.000004	-10.504120	-2.061189	-176.527300	-1.474408	-10.699000	 0.611317	 8.342347	 69.610300	-2.581820	 2.384658	 28.388730	 0.000004	-33.517220	 2.453968	 0.256518	-2.077191	 4.596021	-0.713055	 6.282552	-5.711779	 1.428886	-91.776180	 78.527490	 180.000000	 44.709560	 34.997500	-59.963330	-26.672590	 3.241275	-9.006804	-41.826620	-21.353350	-8.696343	-2.635965	 4.993658	 6.788941	-5.165319	 0.784187	 3.516649	-5.225038	 0.466231	 0.424329	-0.000002	-3.783157	-0.089647	 6.068039	 4.098910	-0.217361	 89.782150	 78.203890	 180.000000	-52.501810	 35.747980	 67.562550	 20.435690	 12.475180	 21.371210	 42.502590	-24.093760	 12.450920	 6.112037	 4.509576	-0.364401	 4.968462	 1.518543	-9.347576	 5.168945	 0.703820	 2.021906
 0.000319	 0.019811	 1.271871	-0.001629	 0.005965	 0.171133	 10.668880	-2.067140	 176.180700	 1.484255	-11.037320	-0.642944	-8.768819	 69.869080	 2.846953	-2.385833	 28.452760	 0.000004	-10.841650	-2.083063	-176.507600	-1.474436	-10.695590	 0.611116	 8.325185	 69.587550	-2.563620	 2.384658	 28.388730	 0.000004	-35.057980	 2.426902	 0.251444	-2.058882	 4.689734	-0.699810	 6.226342	-5.836097	 1.423766	-91.776200	 78.527470	-180.000000	 44.639430	 34.898610	-59.721340	-28.168660	 3.716578	-9.595124	-42.670100	-21.738340	-9.118503	-2.635965	 4.993658	 6.788941	-5.165319	 0.784187	 3.516649	-5.225038	 0.466231	 0.424329	-0.000002	-3.783157	-0.089647	 6.008706	 4.048549	-0.212585	 89.782190	 78.203900	 179.999900	-50.946040	 34.890500	 69.509510	 20.692770	 13.122410	 22.072010	 42.950860	-24.991850	 12.527900	 6.112037	 4.509576	-0.364401	 4.968462	 1.518543	-9.347576	 5.168945	 0.703820	 2.021906
